<?xml version="1.0" encoding="utf-8"?>
<!-- Created by sK1 2.0rc5 (https://sk1project.net/) -->
<svg xmlns="http://www.w3.org/2000/svg" height="40.0px" width="40.0px" version="1.1"
     xmlns:xlink="http://www.w3.org/1999/xlink" id="b8be5db0-060d-11ed-8b51-25fe554582e9">

    <g>
    </g>
    <g>
    </g>
    <g>
        <path style="fill:none;" d="M 2.5,2.5 L 2.5,37.5 37.5,37.5 37.5,2.5 2.5,2.5 Z"/>
        <path style="stroke:#940000;stroke-width:2.1272;stroke-miterlimit:4.0;fill:#5cee00;"
              d="M 2.9412,18.1663 C 6.7753,16.9255 9.9431,15.897 12.5604,15.0443 25.0157,10.9865 25.003,10.9121 25.003,10.9121"/>
        <path style="stroke:#ffffff;stroke-width:1.0974;stroke-miterlimit:4.0;fill:none;"
              d="M 19.4116,10.9979 C 20.6922,13.5004 20.7277,13.5663 20.7277,13.5663"/>
        <path style="fill:#f3d600;"
              d="M 28.043,13.4052 L 24.9805,19.4079 23.3209,12.618 17.1119,11.3133 22.5518,7.5029 21.7769,0.6938 26.7986,5.1287 32.5287,2.2252 30.1924,8.7765 34.5086,13.7911 28.043,13.4052 Z"/>
        <g>
            <g>
                <path style="fill:#3bbf33;"
                      d="M 8.4682,30.9593 C 7.1706,30.9593 6.0751,30.4098 5.1848,29.3068 4.3008,28.196 3.8588,26.7461 3.8588,24.9571 3.8588,23.2227 4.2945,21.7923 5.1721,20.6698 6.0561,19.5474 7.1833,18.9861 8.5566,18.9861 9.9363,18.9861 11.0634,19.5474 11.9411,20.6698 12.8156,21.7845 13.2545,23.2383 13.2545,25.0351 13.2545,26.7812 12.8125,28.2077 11.9285,29.3068 11.0445,30.4098 9.8889,30.9593 8.4682,30.9593 Z M 11.6127,25.0195 C 11.6127,24.1893 11.5433,23.4527 11.4107,22.8057 11.2749,22.1626 11.1076,21.6442 10.9055,21.2467 10.7035,20.853 10.4635,20.5295 10.1857,20.2801 9.9079,20.0229 9.6332,19.8436 9.3648,19.75 9.1028,19.6565 8.8344,19.6097 8.5566,19.6097 8.083,19.6097 7.66,19.7344 7.2811,19.9839 6.9086,20.2255 6.615,20.5256 6.3971,20.8881 6.1856,21.2545 6.0088,21.6832 5.8667,22.1821 5.7215,22.681 5.6268,23.1604 5.5763,23.6164 5.5257,24.0763 5.5005,24.5323 5.5005,24.9883 5.5005,25.5807 5.5447,26.1654 5.6394,26.7344 5.731,27.2957 5.8825,27.8647 6.094,28.4337 6.3024,29.0067 6.615,29.4627 7.0286,29.8057 7.4485,30.1487 7.9504,30.3202 8.5314,30.3202 9.1123,30.3202 9.6111,30.1487 10.0342,29.8057 10.4635,29.4627 10.7856,29.0067 11.0066,28.4337 11.2244,27.8647 11.3791,27.2957 11.4738,26.7344 11.5654,26.1654 11.6127,25.5924 11.6127,25.0195 Z"/>
                <path style="fill:#3bbf33;"
                      d="M 24.0014,30.632 L 24.0014,30.9593 20.3391,30.9593 20.3391,30.632 C 20.7243,30.632 20.9895,30.5852 21.1347,30.4916 21.2768,30.3981 21.3494,30.2344 21.3494,29.9928 21.3494,29.6732 21.2547,29.2366 21.0716,28.6832 L 20.4907,26.8124 16.7147,26.8124 16.058,29.0885 C 15.9822,29.3614 15.9444,29.6108 15.9444,29.8369 15.9444,30.3669 16.2664,30.632 16.9168,30.632 L 16.9168,30.9593 14.0753,30.9593 14.0753,30.632 C 14.4289,30.632 14.7004,30.4761 14.8962,30.1642 15.0982,29.8447 15.4171,29.034 15.856,27.7322 L 18.8489,18.9861 19.1394,18.9861 22.7133,29.1197 C 22.9406,29.7667 23.13,30.1798 23.2816,30.3669 23.4394,30.5462 23.6794,30.632 24.0014,30.632 Z M 16.9673,26.1264 L 20.2886,26.1264 18.6216,21.4182 Z"/>
                <path style="fill:#3bbf33;"
                      d="M 28.9897,28.3714 C 28.9897,27.8218 28.8287,27.3385 28.5098,26.9215 28.1973,26.4967 27.8153,26.1342 27.3606,25.8302 26.9123,25.5301 26.4672,25.2222 26.022,24.9104 25.5737,24.5986 25.1917,24.1932 24.8728,23.6943 24.5602,23.1954 24.4055,22.6147 24.4055,21.9482 24.4055,21.0752 24.6486,20.3658 25.138,19.8124 25.6337,19.2628 26.2177,18.9861 26.8934,18.9861 27.2975,18.9861 27.73,18.9861 28.1941,18.9861 28.6645,18.9861 28.9518,18.9861 29.0529,18.9861 29.296,18.9861 29.4475,18.9861 29.5075,18.9861 L 29.8106,18.9861 30.1263,22.681 29.7727,22.681 C 29.5359,21.6637 29.1823,20.9154 28.7119,20.436 28.2383,19.9488 27.7142,19.7033 27.1333,19.7033 26.6945,19.7033 26.3377,19.8553 26.0599,20.1554 25.7821,20.4594 25.6431,20.8413 25.6431,21.309 25.6431,21.7767 25.801,22.2211 26.123,22.6342 26.4514,23.0512 26.9944,23.515 27.7521,24.0217 28.7024,24.6375 29.3875,25.2378 29.8106,25.8302 30.2305,26.4226 30.442,27.0774 30.442,27.7945 30.442,28.691 30.1579,29.4432 29.5959,30.0551 29.0308,30.6592 28.3362,30.9593 27.5122,30.9593 27.0323,30.9593 26.5429,30.9593 26.0473,30.9593 25.5579,30.9593 25.2548,30.9593 25.138,30.9593 25.037,30.9593 24.9422,30.9593 24.8602,30.9593 24.7844,30.9593 24.7402,30.9593 24.7339,30.9593 L 24.4182,30.9593 23.9888,27.2489 24.3171,27.2489 C 24.6707,28.309 25.0812,29.0885 25.5547,29.5874 26.0252,30.0785 26.5808,30.3202 27.2217,30.3202 27.7521,30.3202 28.1752,30.1409 28.4972,29.7745 28.8255,29.412 28.9897,28.9443 28.9897,28.3714 Z"/>
                <path style="fill:#3bbf33;"
                      d="M 31.9953,29.3536 C 32.2132,29.3536 32.5415,29.5173 32.9804,29.8369 33.4161,30.1604 33.8012,30.3202 34.1296,30.3202 34.6505,30.3202 35.0925,30.0785 35.4556,29.5874 35.825,29.0885 36.0112,28.4727 36.0112,27.7322 36.0112,27.2879 35.9418,26.8903 35.8092,26.5473 35.6829,26.1966 35.5187,25.9237 35.3167,25.7366 35.1146,25.5418 34.8747,25.3859 34.5968,25.2689 34.319,25.1442 34.057,25.0663 33.8139,25.0351 33.5676,24.9961 33.3087,24.9727 33.0309,24.9727 L 33.0309,24.7545 C 33.3592,24.6219 33.6402,24.4855 33.877,24.3491 34.1106,24.2166 34.3569,24.0334 34.6095,23.8035 34.8683,23.5774 35.0672,23.3007 35.203,22.9772 35.3451,22.6576 35.4177,22.2912 35.4177,21.8859 35.4177,21.348 35.2693,20.9037 34.9757,20.5607 34.6884,20.2099 34.3095,20.0306 33.8391,20.0306 33.3845,20.0306 32.9867,20.1827 32.652,20.4828 32.3142,20.7751 31.9953,21.2389 31.6922,21.8703 L 31.4776,21.7923 C 31.7301,20.9739 32.0648,20.3035 32.4878,19.7812 32.9172,19.2511 33.5234,18.9861 34.3064,18.9861 34.9694,18.9861 35.5092,19.2122 35.9228,19.6565 36.3427,20.093 36.5543,20.662 36.5543,21.3558 36.5543,21.8235 36.4532,22.2406 36.2512,22.603 36.0491,22.9577 35.6987,23.3358 35.203,23.7411 35.7744,24.0451 36.2259,24.4271 36.5543,24.8948 36.8826,25.3625 37.0468,26.0329 37.0468,26.9059 37.0468,28.1336 36.6679,29.1158 35.9102,29.8524 35.1588,30.593 34.218,30.9593 33.0814,30.9593 32.5763,30.9593 32.1753,30.8736 31.8817,30.6943 31.5944,30.5072 31.4523,30.2656 31.4523,29.9616 31.4523,29.7745 31.5028,29.6303 31.6038,29.5251 31.7049,29.412 31.8343,29.3536 31.9953,29.3536 Z"/>
            </g>
        </g>
    </g>
</svg>