<svg xmlns="http://www.w3.org/2000/svg" width="14" height="14" viewBox="0 0 14 14.153">
    <g style="fill:none">
        <path style="fill:none" d="M0 0h14v14H0z" transform="matrix(1 0 0 .98919 0 .304)"/>
        <path d="M.418 9.384c1.76-.507 3.213-.93 4.414-1.28 5.718-1.673 5.718-1.74 5.718-1.74"
              style="fill:#5cee00;fill-opacity:1;stroke:#940000;stroke-width:1.32665062;stroke-linecap:butt;stroke-linejoin:miter;stroke-miterlimit:4;stroke-dasharray:none;stroke-opacity:1"
              transform="matrix(1 0 0 .98919 0 .304)"/>
        <path style="fill:none;stroke:#fff;stroke-width:.58492547px;stroke-linecap:butt;stroke-linejoin:miter;stroke-opacity:1"
              d="M7.592 6.434 8.1 7.99" transform="matrix(1 0 0 .98919 0 .304)"/>
        <path transform="matrix(.91418 0 0 1.099 1.086 2.47)"
              d="M11.17 4.918 9.776 7.441l-.757-2.854-2.831-.548 2.48-1.601-.353-2.862 2.29 1.864L13.215.22l-1.065 2.753 1.968 2.107Z"
              style="fill:#f3d600;fill-opacity:1;stroke:none;stroke-width:1.05999994;stroke-miterlimit:4;stroke-dasharray:none;stroke-opacity:1"/>
    </g>
</svg>